
<svg width="56" height="56" viewBox="0 0 56 56" fill="none" xmlns="http://www.w3.org/2000/svg">
<g clip-path="url(#clip0_1850_18923)">
<path d="M19.4219 25.5891L19.4387 25.6683H19.5197H21.5156H21.6364L21.6138 25.5496C21.1095 22.9073 18.6806 21.9 16.7046 21.9C14.9678 21.9 13.5141 22.5024 12.495 23.5787C11.4764 24.6545 10.9 26.1952 10.9 28.0576C10.9 29.8255 11.4311 31.3365 12.3966 32.4069C13.363 33.4784 14.7575 34.1 16.4663 34.1C18.6865 34.1 21.1382 33.1708 21.6138 30.6661L21.6363 30.5475H21.5156H19.5197H19.4473L19.4247 30.6162C19.1303 31.51 18.1242 32.159 16.645 32.159C15.517 32.159 14.6415 31.7488 14.0463 31.0383C13.4491 30.3255 13.1257 29.3003 13.1257 28.0576C13.1257 26.7299 13.4894 25.6764 14.1229 24.9563C14.7552 24.2376 15.6648 23.841 16.7791 23.841C18.0624 23.841 19.197 24.53 19.4219 25.5891ZM23.0433 22.1302H22.9433V22.2302V33.7554V33.8554H23.0433H27.2733C29.1461 33.8554 30.6159 33.3283 31.6172 32.3186C32.6184 31.3091 33.1375 29.8309 33.1375 27.9568C33.1375 26.0825 32.6145 24.622 31.6109 23.6303C30.6074 22.6388 29.1378 22.1302 27.2733 22.1302H23.0433ZM42.9063 25.5891L42.9231 25.6683H43.0041H45H45.1209L45.0982 25.5496C44.594 22.9073 42.165 21.9 40.1891 21.9C38.4522 21.9 36.9986 22.5024 35.9795 23.5787C34.9609 24.6545 34.3845 26.1952 34.3845 28.0576C34.3845 29.8255 34.9156 31.3365 35.881 32.4069C36.8475 33.4784 38.242 34.1 39.9507 34.1C42.1709 34.1 44.6227 33.1708 45.0982 30.6661L45.1208 30.5475H45H43.0041H42.9318L42.9092 30.6162C42.6147 31.51 41.6086 32.159 40.1295 32.159C39.0015 32.159 38.126 31.7488 37.5307 31.0383C36.9336 30.3255 36.6101 29.3003 36.6101 28.0576C36.6101 26.7299 36.9738 25.6764 37.6073 24.9563C38.2396 24.2376 39.1493 23.841 40.2635 23.841C41.5469 23.841 42.6814 24.53 42.9063 25.5891ZM25.0796 31.9144V24.0712H27.0201C28.3073 24.0712 29.2758 24.4015 29.923 25.044C30.57 25.6863 30.9118 26.6567 30.9118 27.9712C30.9118 29.2787 30.5736 30.2603 29.9278 30.9154C29.2822 31.5702 28.3138 31.9144 27.0201 31.9144H25.0796Z" fill="black" stroke="black" stroke-width="0.2"/>
<rect x="6" y="11" width="44" height="34" rx="6" stroke="black" stroke-width="3"/>
</g>
<defs>
<clipPath id="clip0_1850_18923">
<rect width="56" height="56" fill="white"/>
</clipPath>
</defs>
</svg>
