
<svg width="56" height="56" viewBox="0 0 56 56" fill="none" xmlns="http://www.w3.org/2000/svg">
<g clip-path="url(#clip0_1850_18929)">
<g clip-path="url(#clip1_1850_18929)">
<circle cx="28.0014" cy="28.0014" r="18.4995" stroke="#191919" stroke-width="3"/>
<path d="M42.4023 17.6016H26.7281C23.3488 17.6016 20.7848 20.6464 21.36 23.9764V23.9764C21.5482 25.0663 22.0638 26.0731 22.8381 26.8629L25.5527 29.6318C26.2455 30.3385 26.7205 31.2296 26.9208 32.1988V32.1988C27.5824 35.3997 25.138 38.401 21.8694 38.401H14.0031" stroke="#191919" stroke-width="3" stroke-linecap="round"/>
<path d="M42.4023 17.6016H34.5907C31.1801 17.6016 28.6192 20.7174 29.2797 24.0634V24.0634C29.484 25.0986 29.9864 26.0514 30.7251 26.8049L33.4403 29.5744C34.1685 30.3171 34.6568 31.2615 34.8419 32.2851V32.2851C35.418 35.4707 32.9701 38.401 29.7328 38.401H14.0031" stroke="#191919" stroke-width="3" stroke-linecap="round"/>
</g>
</g>
<defs>
<clipPath id="clip0_1850_18929">
<rect width="56" height="56" fill="white"/>
</clipPath>
<clipPath id="clip1_1850_18929">
<rect width="56" height="56" fill="white"/>
</clipPath>
</defs>
</svg>
