
<svg width="56" height="56" viewBox="0 0 56 56" fill="none" xmlns="http://www.w3.org/2000/svg">
<path d="M50.6512 24.0717V33.2787H46.7363C45.7604 33.2787 44.9264 33.9806 44.7591 34.9414C44.1973 38.1675 39.5734 38.1577 39.017 34.9432C38.8504 33.9812 38.0158 33.2787 37.0395 33.2787H34.0753C33.2469 33.2787 32.5753 33.9502 32.5753 34.7787C32.5753 35.6071 33.2469 36.2787 34.0753 36.2787H36.2565C37.9231 41.7226 45.8481 41.7117 47.5183 36.2787H50.7362C52.3461 36.2787 53.6512 34.9736 53.6512 33.3637V24.0332C53.6512 23.1951 53.2904 22.3975 52.661 21.8441L45.4531 15.5067C44.2753 14.4712 42.7607 13.9 41.1925 13.9H25.3132C23.2463 13.9 21.3044 14.8902 20.0906 16.5632L16.8571 21.0198C16.7489 21.1689 16.59 21.2557 16.4205 21.2691C14.9063 21.3891 11.8098 21.6194 8.65515 21.7643C5.20175 21.9229 2.35117 24.7376 2.35117 28.2681V33.2187C2.35117 34.9087 3.72116 36.2787 5.41113 36.2787H9.62441C10.4914 38.9894 12.9399 40.353 15.294 40.3582C17.65 40.3634 20.0871 39.005 20.9044 36.2787H23.2529C24.0813 36.2787 24.7529 35.6071 24.7529 34.7787C24.7529 33.9502 24.0813 33.2787 23.2529 33.2787H20.115C19.1307 33.2787 18.2916 33.9925 18.134 34.9642C17.8733 36.5705 16.6479 37.3612 15.3007 37.3582C13.9455 37.3552 12.6727 36.5446 12.3714 34.9226C12.1957 33.9773 11.3703 33.2787 10.3956 33.2787H5.41113C5.37802 33.2787 5.35117 33.2518 5.35117 33.2187V28.2681C5.35117 26.4134 6.86764 24.8496 8.79278 24.7611C11.9952 24.6141 15.1291 24.3809 16.6576 24.2597C17.7162 24.1758 18.6701 23.6295 19.2853 22.7816L22.5188 18.325C23.1682 17.4298 24.2073 16.9 25.3132 16.9H41.1925C42.0316 16.9 42.842 17.2056 43.4722 17.7597L50.6512 24.0717Z" fill="black" stroke="black" stroke-width="0.2"/>
<path fill-rule="evenodd" clip-rule="evenodd" d="M28.8236 42.9171C28.914 43.0276 29.086 43.0276 29.1764 42.9171L31.9501 39.5287C32.0684 39.3841 31.9631 39.17 31.7737 39.17L30.6133 39.17L30.6133 36.2208C30.6133 36.0988 30.5121 36 30.3874 36L27.5955 36C27.4707 36 27.3696 36.0988 27.3696 36.2208L27.3696 39.17L26.2263 39.17C26.0369 39.17 25.9316 39.3841 26.0499 39.5287L28.8236 42.9171Z" fill="black"/>
<path d="M28.8236 26.0829C28.914 25.9724 29.086 25.9724 29.1764 26.0829L31.9501 29.4713C32.0684 29.6159 31.9631 29.83 31.7737 29.83H30.6304V32.7792C30.6304 32.9012 30.5293 33 30.4045 33H27.6126C27.4879 33 27.3867 32.9012 27.3867 32.7792V29.83H26.2263C26.0369 29.83 25.9316 29.6159 26.0499 29.4713L28.8236 26.0829Z" fill="black"/>
</svg>
