
<svg width="56" height="56" viewBox="0 0 56 56" fill="none" xmlns="http://www.w3.org/2000/svg">
<g clip-path="url(#clip0_1850_18957)">
<path d="M18.7469 37.5229C18.444 38.2939 18.8235 39.1646 19.5945 39.4675C20.3656 39.7704 21.2362 39.3909 21.5391 38.6198L18.7469 37.5229ZM35.3569 42.3413C35.6496 43.1164 36.5151 43.5074 37.2901 43.2147C38.0651 42.922 38.4561 42.0565 38.1635 41.2815L35.3569 42.3413ZM21.5391 38.6198L25.4677 28.6198L22.6754 27.5229L18.7469 37.5229L21.5391 38.6198ZM25.4712 28.6109L29.2755 18.7422L26.4762 17.6631L22.672 27.5318L25.4712 28.6109ZM26.4711 18.7287L30.1668 28.5974L32.9763 27.5453L29.2806 17.6766L26.4711 18.7287ZM30.1683 28.6013L35.3569 42.3413L38.1635 41.2815L32.9748 27.5414L30.1683 28.6013ZM24.0716 29.5714L31.5716 29.5714L31.5716 26.5714L24.0716 26.5714V29.5714ZM29.2814 17.6787L26.0833 9.09913L23.2722 10.147L26.4703 18.7266L29.2814 17.6787Z" fill="#191919"/>
<circle cx="28" cy="27" r="18.5" stroke="#191919" stroke-width="3"/>
</g>
<defs>
<clipPath id="clip0_1850_18957">
<rect width="56" height="56" fill="white"/>
</clipPath>
</defs>
</svg>
